<svg width="130" height="137" viewBox="0 0 130 137" fill="none" xmlns="http://www.w3.org/2000/svg">
<circle cx="65" cy="60" r="58" stroke="url(#paint0_linear)" stroke-width="4"/>
<g filter="url(#filter0_d)">
<circle cx="64.9999" cy="57.3134" r="34.0299" fill="#2B2A2A"/>
</g>
<circle cx="65" cy="57.3134" r="44.7761" fill="#2B2A2A"/>
<path d="M50.1426 50.2539L40.2461 73H34.8848L44.7988 51.5195H32.0723V47.4062H50.1426V50.2539ZM54.168 60.4141L55.6445 47.4062H69.9883V51.6426H59.8105L59.1777 57.1445C60.3848 56.5 61.668 56.1777 63.0273 56.1777C65.4648 56.1777 67.375 56.9336 68.7578 58.4453C70.1406 59.957 70.832 62.0723 70.832 64.791C70.832 66.4434 70.4805 67.9258 69.7773 69.2383C69.0859 70.5391 68.0898 71.5527 66.7891 72.2793C65.4883 72.9941 63.9531 73.3516 62.1836 73.3516C60.6367 73.3516 59.2012 73.041 57.877 72.4199C56.5527 71.7871 55.5039 70.9023 54.7305 69.7656C53.9688 68.6289 53.5645 67.334 53.5176 65.8809H58.5449C58.6504 66.9473 59.0195 67.7793 59.6523 68.377C60.2969 68.9629 61.1348 69.2559 62.166 69.2559C63.3145 69.2559 64.1992 68.8457 64.8203 68.0254C65.4414 67.1934 65.752 66.0215 65.752 64.5098C65.752 63.0566 65.3945 61.9434 64.6797 61.1699C63.9648 60.3965 62.9512 60.0098 61.6387 60.0098C60.4316 60.0098 59.4531 60.3262 58.7031 60.959L58.2109 61.416L54.168 60.4141ZM74.0137 52.3281C74.0137 50.7578 74.5234 49.4863 75.543 48.5137C76.5625 47.5293 77.8984 47.0371 79.5508 47.0371C81.2266 47.0371 82.5742 47.5234 83.5938 48.4961C84.6133 49.457 85.123 50.7637 85.123 52.416V53.6816C85.123 55.2637 84.6133 56.5352 83.5938 57.4961C82.5742 58.457 81.2383 58.9375 79.5859 58.9375C77.9219 58.9375 76.5742 58.457 75.543 57.4961C74.5234 56.5234 74.0137 55.2168 74.0137 53.5762V52.3281ZM77.3887 53.6816C77.3887 54.3848 77.5879 54.9531 77.9863 55.3867C78.3965 55.8086 78.9297 56.0195 79.5859 56.0195C80.2422 56.0195 80.7637 55.8027 81.1504 55.3691C81.5371 54.9355 81.7305 54.3555 81.7305 53.6289V52.3281C81.7305 51.625 81.5371 51.0566 81.1504 50.623C80.7637 50.1895 80.2305 49.9727 79.5508 49.9727C78.9062 49.9727 78.3848 50.1895 77.9863 50.623C77.5879 51.0449 77.3887 51.6367 77.3887 52.3984V53.6816ZM86.248 66.7246C86.248 65.1426 86.7637 63.8711 87.7949 62.9102C88.8262 61.9375 90.1621 61.4512 91.8027 61.4512C93.4668 61.4512 94.8086 61.9316 95.8281 62.8926C96.8594 63.8418 97.375 65.1543 97.375 66.8301V68.0957C97.375 69.666 96.8711 70.9375 95.8633 71.9102C94.8555 72.8711 93.5137 73.3516 91.8379 73.3516C90.1504 73.3516 88.7969 72.8652 87.7773 71.8926C86.7578 70.9199 86.248 69.6309 86.248 68.0254V66.7246ZM89.623 68.0957C89.623 68.7402 89.834 69.291 90.2559 69.748C90.6777 70.2051 91.2051 70.4336 91.8379 70.4336C93.2676 70.4336 93.9824 69.6426 93.9824 68.0605V66.7246C93.9824 66.0215 93.7832 65.459 93.3848 65.0371C92.9863 64.6035 92.459 64.3867 91.8027 64.3867C91.1465 64.3867 90.6191 64.6035 90.2207 65.0371C89.8223 65.459 89.623 66.0391 89.623 66.7773V68.0957ZM80.5879 71.084L78.1094 69.748L90.6074 49.7441L93.0859 51.0801L80.5879 71.084Z" fill="white"/>
<defs>
<filter id="filter0_d" x="0.970093" y="8.28357" width="128.06" height="128.06" filterUnits="userSpaceOnUse" color-interpolation-filters="sRGB">
<feFlood flood-opacity="0" result="BackgroundImageFix"/>
<feColorMatrix in="SourceAlpha" type="matrix" values="0 0 0 0 0 0 0 0 0 0 0 0 0 0 0 0 0 0 127 0"/>
<feOffset dy="15"/>
<feGaussianBlur stdDeviation="15"/>
<feColorMatrix type="matrix" values="0 0 0 0 1 0 0 0 0 0 0 0 0 0 0 0 0 0 1 0"/>
<feBlend mode="normal" in2="BackgroundImageFix" result="effect1_dropShadow"/>
<feBlend mode="normal" in="SourceGraphic" in2="effect1_dropShadow" result="shape"/>
</filter>
<linearGradient id="paint0_linear" x1="-15.8475" y1="120" x2="65" y2="120" gradientUnits="userSpaceOnUse">
<stop offset="0.536358" stop-color="white" stop-opacity="0"/>
<stop offset="0.536458" stop-color="#FF0000"/>
</linearGradient>
</defs>
</svg>
