<svg width="100" height="120" viewBox="0 0 100 120" fill="none" xmlns="http://www.w3.org/2000/svg">
<path d="M24.3987 58.8619L24.0356 59.2008L24.3995 59.5389L39.2499 73.3341L24.4701 87.1286L24.1079 87.4667L24.4701 87.8048L34.5416 97.2048L34.8571 97.4993L35.1727 97.2048L50 83.366L64.8273 97.2048L65.1429 97.4993L65.4584 97.2048L75.5299 87.8048L75.8921 87.4667L75.5299 87.1286L60.7493 73.3333L75.5299 59.5381L75.8921 59.2L75.5299 58.8619L65.4584 49.4619L65.1429 49.1674L64.8273 49.4619L49.9993 63.3014L35.1005 49.4611L34.785 49.168L34.4701 49.4619L24.3987 58.8619ZM74.6844 7.00478L74.8177 7.12917H75H99.5375V19.5375H0.4625V7.12917H25H25.1823L25.3156 7.00478L32.3252 0.4625H67.6748L74.6844 7.00478ZM21.4286 119.537C13.7963 119.537 7.60536 113.715 7.60536 106.667V27.1292H92.3946V106.667C92.3946 113.715 86.2037 119.537 78.5714 119.537H21.4286Z" fill="#141313" stroke="white" stroke-width="0.925"/>
</svg>
