<svg width="181" height="64" viewBox="0 0 181 64" fill="none" xmlns="http://www.w3.org/2000/svg">
<rect y="6" width="181" height="52" rx="10" fill="white"/>
<path d="M61.1836 34.4404L63.5654 28.4902H66.6855L62.1855 38H59.2412L57.7207 28.4902H60.6914L61.1836 34.4404ZM71.3965 28.3145C72.2461 28.3262 72.9814 28.54 73.6025 28.9561C74.2236 29.3662 74.6777 29.9404 74.9648 30.6787C75.2578 31.417 75.3633 32.2373 75.2812 33.1396L75.2637 33.333C75.0996 34.792 74.5576 35.9697 73.6377 36.8662C72.7178 37.7627 71.5811 38.1992 70.2275 38.1758C69.3838 38.1641 68.6543 37.9561 68.0391 37.5518C67.4238 37.1416 66.9668 36.5703 66.668 35.8379C66.375 35.1055 66.2695 34.291 66.3516 33.3945C66.498 31.8359 67.0312 30.5938 67.9512 29.668C68.877 28.7422 70.0254 28.291 71.3965 28.3145ZM69.2432 33.3945L69.2168 33.9131C69.1348 35.2197 69.5332 35.8848 70.4121 35.9082C71.5488 35.9434 72.208 35.0205 72.3896 33.1396L72.4248 32.3398C72.4365 31.8125 72.3369 31.3936 72.126 31.083C71.9209 30.7666 71.6162 30.6025 71.2119 30.5908C70.6787 30.5732 70.2393 30.793 69.8936 31.25C69.5537 31.7012 69.3369 32.416 69.2432 33.3945ZM78.7969 38H75.8965L77.5488 28.4902H80.4492L78.7969 38ZM77.8037 26.0908C77.792 25.6631 77.9414 25.3057 78.252 25.0186C78.5684 24.7314 78.9492 24.5879 79.3945 24.5879C79.8457 24.5879 80.2207 24.7168 80.5195 24.9746C80.8242 25.2324 80.9824 25.5693 80.9941 25.9854C81.0059 26.4189 80.8564 26.7793 80.5459 27.0664C80.2354 27.3477 79.8545 27.4883 79.4033 27.4883C78.9639 27.4883 78.5889 27.3623 78.2783 27.1104C77.9736 26.8525 77.8154 26.5127 77.8037 26.0908ZM85.0371 35.8994C85.4531 35.9111 85.7783 35.7969 86.0127 35.5566C86.2471 35.3105 86.3965 34.9941 86.4609 34.6074L89.168 34.5986C89.1328 35.2959 88.9248 35.9199 88.5439 36.4707C88.1689 37.0215 87.6592 37.4492 87.0146 37.7539C86.376 38.0527 85.6904 38.1934 84.958 38.1758C83.6924 38.1523 82.7168 37.6982 82.0312 36.8135C81.3457 35.9229 81.0674 34.7744 81.1963 33.3682L81.2227 33.1572C81.3281 32.1963 81.5977 31.3467 82.0312 30.6084C82.4648 29.8643 83.0332 29.29 83.7363 28.8857C84.4453 28.4814 85.2363 28.291 86.1094 28.3145C87.2168 28.3379 88.0898 28.6924 88.7285 29.3779C89.373 30.0576 89.6836 30.9775 89.6602 32.1377L86.9531 32.1289C86.9824 31.1211 86.6221 30.6084 85.8721 30.5908C84.8525 30.5557 84.2666 31.4141 84.1143 33.166L84.0352 34.0625L84.0264 34.3965C84.0264 35.3809 84.3633 35.8818 85.0371 35.8994ZM94.5205 38.1758C93.6709 38.1699 92.9121 37.9707 92.2441 37.5781C91.582 37.1797 91.0811 36.6289 90.7412 35.9258C90.4014 35.2168 90.2666 34.4375 90.3369 33.5879L90.3633 33.3418C90.5215 31.7773 91.0635 30.541 91.9893 29.6328C92.9209 28.7188 94.0605 28.2793 95.4082 28.3145C96.2227 28.3262 96.9199 28.5342 97.5 28.9385C98.0801 29.3369 98.5049 29.8906 98.7744 30.5996C99.0439 31.3027 99.1318 32.0938 99.0381 32.9727L98.8711 34.1768H93.2109C93.2227 34.6748 93.3633 35.0791 93.6328 35.3896C93.9023 35.7002 94.2949 35.8643 94.8105 35.8818C95.6484 35.9053 96.4014 35.583 97.0693 34.915L98.2822 36.5234C97.9248 37.0332 97.4238 37.4346 96.7793 37.7275C96.1406 38.0146 95.4404 38.1641 94.6787 38.1758H94.5205ZM95.2236 30.5908C94.8135 30.5791 94.4561 30.708 94.1514 30.9775C93.8525 31.2471 93.5918 31.6982 93.3691 32.3311H96.2607L96.3135 32.0762C96.3486 31.8711 96.3545 31.6777 96.3311 31.4961C96.2314 30.9102 95.8623 30.6084 95.2236 30.5908Z" fill="#FF0000"/>
<path d="M106.553 34.5371C106.682 33.875 106.324 33.3623 105.48 32.999L104.039 32.4014C102.018 31.4932 101.057 30.2568 101.156 28.6924C101.197 27.9775 101.443 27.3418 101.895 26.7852C102.346 26.2227 102.97 25.7861 103.767 25.4756C104.563 25.165 105.434 25.0156 106.377 25.0273C107.643 25.0508 108.659 25.4199 109.427 26.1348C110.2 26.8496 110.581 27.8076 110.569 29.0088H107.581C107.599 28.5166 107.493 28.124 107.265 27.8311C107.042 27.5322 106.673 27.377 106.157 27.3652C105.653 27.3535 105.208 27.4707 104.821 27.7168C104.435 27.9629 104.206 28.2939 104.136 28.71C104.024 29.2959 104.458 29.7764 105.437 30.1514C106.421 30.5264 107.136 30.8486 107.581 31.1182C108.981 31.9561 109.638 33.0869 109.55 34.5107C109.503 35.249 109.266 35.8965 108.838 36.4531C108.41 37.0098 107.815 37.4404 107.054 37.7451C106.298 38.0498 105.448 38.1963 104.505 38.1846C103.813 38.1729 103.172 38.0645 102.58 37.8594C101.988 37.6543 101.481 37.3555 101.06 36.9629C100.204 36.1719 99.7939 35.1318 99.8291 33.8428L102.844 33.8516C102.809 34.5078 102.935 35.0059 103.222 35.3457C103.509 35.6797 103.992 35.8467 104.672 35.8467C105.176 35.8467 105.595 35.7324 105.929 35.5039C106.269 35.2695 106.477 34.9473 106.553 34.5371ZM120.976 33.1924L123.647 25.2031H126.688L122.048 38H118.937L118.418 30.749L115.658 38H112.547L111.905 25.2031H114.832L115.008 33.1572L117.943 25.2031H120.501L120.976 33.1924ZM129.026 38H126.021L128.244 25.2031H131.241L129.026 38ZM142.482 27.585H138.756L136.954 38H133.939L135.75 27.585H132.085L132.507 25.2031H142.896L142.482 27.585ZM152.484 33.6406C152.408 34.5371 152.112 35.334 151.597 36.0312C151.087 36.7285 150.413 37.2646 149.575 37.6396C148.743 38.0146 147.841 38.1934 146.868 38.1758C145.532 38.1465 144.48 37.7158 143.713 36.8838C142.945 36.0518 142.526 34.9238 142.456 33.5C142.403 32.5508 142.506 31.5166 142.764 30.3975C143.027 29.2783 143.452 28.3057 144.038 27.4795C144.63 26.6475 145.324 26.0264 146.121 25.6162C146.924 25.2002 147.8 25.001 148.749 25.0186C150.144 25.042 151.245 25.4609 152.054 26.2754C152.868 27.0898 153.311 28.2119 153.381 29.6416L150.384 29.6328C150.396 28.8535 150.255 28.2969 149.962 27.9629C149.669 27.6289 149.206 27.4502 148.573 27.4268C146.991 27.374 146.027 28.6045 145.682 31.1182C145.523 32.2549 145.444 33.0664 145.444 33.5527C145.415 34.9941 145.948 35.7354 147.044 35.7764C147.753 35.7998 148.318 35.627 148.74 35.2578C149.162 34.8828 149.432 34.3555 149.549 33.6758L152.484 33.6406ZM163.699 38H160.711L161.634 32.6562H157.248L156.316 38H153.311L155.525 25.2031H158.54L157.652 30.2832H162.047L162.926 25.2031H165.923L163.699 38Z" fill="black"/>
<path d="M30.3441 11C25.453 11 20.9866 12.8161 17.5804 15.8097C13.9761 20.0307 11.8854 23.6823 11.8854 28.5734C11.8854 41.0785 21.4313 48.8028 32.1148 48.8028C32.1197 48.8028 48.4164 37.2528 48.4164 37.2528C49.2373 35.107 49.6882 32.7784 49.6882 30.3441C49.6882 19.6607 41.0275 11 30.3441 11V11Z" fill="black"/>
<path d="M31.9819 46.1469C31.9819 46.7502 32.033 47.3414 32.1296 47.9173C32.1246 47.9173 32.1196 47.9175 32.1147 47.9175C21.4313 47.9175 12.7706 39.2569 12.7706 28.5734C12.7706 23.6823 14.5868 19.216 17.5803 15.8097C13.5466 19.355 11 24.5517 11 30.3441C11 41.0275 19.6607 49.6881 30.3441 49.6881C38.5932 49.6881 45.6351 44.524 48.4164 37.2528C46.7466 36.1595 44.7506 35.5231 42.6056 35.5231C36.7383 35.5231 31.9819 40.2796 31.9819 46.1469Z" fill="#2B2A2A"/>
<path d="M27.0705 40.3689C26.7037 40.3689 26.4065 40.0716 26.4065 39.7049V20.9832C26.4065 20.6165 26.7037 20.3192 27.0705 20.3192C27.4373 20.3192 27.7345 20.6165 27.7345 20.9832V39.7049C27.7345 40.0716 27.4373 40.3689 27.0705 40.3689ZM23.797 38.0329C23.4302 38.0329 23.133 37.7356 23.133 37.3689V23.3192C23.133 22.9525 23.4302 22.6552 23.797 22.6552C24.1638 22.6552 24.461 22.9525 24.461 23.3192V37.3689C24.461 37.7356 24.1637 38.0329 23.797 38.0329ZM33.6177 36.3079C33.2509 36.3079 32.9538 36.0106 32.9538 35.6439V25.0442C32.9538 24.6775 33.2509 24.3803 33.6177 24.3803C33.9845 24.3803 34.2817 24.6775 34.2817 25.0442V35.6439C34.2817 36.0106 33.9844 36.3079 33.6177 36.3079ZM20.5233 36.209C20.1565 36.209 19.8593 35.9117 19.8593 35.545V25.1431C19.8593 24.7764 20.1565 24.4791 20.5233 24.4791C20.89 24.4791 21.1872 24.7764 21.1872 25.1431V35.5449C21.1872 35.9117 20.89 36.209 20.5233 36.209ZM40.165 35.2847C39.7982 35.2847 39.501 34.9874 39.501 34.6207V26.0675C39.501 25.7008 39.7982 25.4035 40.165 25.4035C40.5318 25.4035 40.829 25.7008 40.829 26.0675V34.6207C40.829 34.9874 40.5317 35.2847 40.165 35.2847ZM30.3441 34.8263C29.9773 34.8263 29.6801 34.529 29.6801 34.1623V26.5257C29.6801 26.159 29.9773 25.8617 30.3441 25.8617C30.7109 25.8617 31.0081 26.159 31.0081 26.5257V34.1623C31.0081 34.529 30.7109 34.8263 30.3441 34.8263ZM36.8913 34.3615C36.5245 34.3615 36.2273 34.0642 36.2273 33.6975V26.9905C36.2273 26.6238 36.5245 26.3265 36.8913 26.3265C37.258 26.3265 37.5552 26.6238 37.5552 26.9905V33.6975C37.5552 34.0642 37.258 34.3615 36.8913 34.3615ZM17.2497 32.3841C16.883 32.3841 16.5858 32.0868 16.5858 31.7201V28.968C16.5858 28.6013 16.883 28.304 17.2497 28.304C17.6165 28.304 17.9137 28.6013 17.9137 28.968V31.7201C17.9137 32.0868 17.6164 32.3841 17.2497 32.3841ZM43.4385 32.0664C43.0717 32.0664 42.7745 31.7692 42.7745 31.4025V29.2858C42.7745 28.9191 43.0717 28.6218 43.4385 28.6218C43.8053 28.6218 44.1025 28.9191 44.1025 29.2858V31.4025C44.1025 31.7692 43.8053 32.0664 43.4385 32.0664ZM13.9761 31.6049C13.6093 31.6049 13.3121 31.3076 13.3121 30.9409V29.7473C13.3121 29.3806 13.6093 29.0833 13.9761 29.0833C14.3429 29.0833 14.6401 29.3806 14.6401 29.7473V30.9409C14.6401 31.3076 14.3429 31.6049 13.9761 31.6049ZM46.7121 31.5638C46.3453 31.5638 46.0481 31.2665 46.0481 30.8998V29.7883C46.0481 29.4216 46.3453 29.1243 46.7121 29.1243C47.0789 29.1243 47.3761 29.4216 47.3761 29.7883V30.8998C47.3761 31.2665 47.0788 31.5638 46.7121 31.5638Z" fill="white"/>
<path d="M44.3762 33.7525C41.8937 33.7525 39.6103 34.6042 37.8017 36.031C35.7504 38.1745 34.6378 40.2174 34.6378 43.4909C34.6378 49.3582 39.3942 54.1147 45.2616 54.1147C47.7441 54.1147 50.8728 52.7819 52.7215 50.9508C54.1483 49.1422 55 46.8587 55 44.3762C55 38.5089 50.2436 33.7525 44.3762 33.7525Z" fill="#2B2A2A"/>
<path d="M35.5232 42.6056C35.5232 40.1231 36.3749 37.8396 37.8017 36.031C35.3357 37.9765 33.7526 40.9914 33.7526 44.3763C33.7526 50.2436 38.509 55 44.3763 55C47.7611 55 50.776 53.4169 52.7215 50.9508C50.9129 52.3777 48.6294 53.2294 46.1469 53.2294C40.2796 53.2294 35.5232 48.4729 35.5232 42.6056Z" fill="black"/>
<path d="M44.3762 49.6881C47.3099 49.6881 49.6881 47.3099 49.6881 44.3763C49.6881 41.4426 47.3099 39.0644 44.3762 39.0644C41.4425 39.0644 39.0643 41.4426 39.0643 44.3763C39.0643 47.3099 41.4425 49.6881 44.3762 49.6881Z" fill="#FF0000"/>
</svg>
