<svg width="100" height="120" viewBox="0 0 100 120" fill="none" xmlns="http://www.w3.org/2000/svg">
<path d="M20.1422 34.6444V18.7448C20.1422 8.53556 33.1754 0 49.763 0C66.1137 0 79.3839 8.53556 79.3839 18.7448V34.6444H20.1422ZM100 35.6485V67.6151C90.2844 86.3598 61.6114 89.205 61.6114 89.205V110.46H93.128V120H6.3981V110.46H38.1517V89.205C38.1517 89.205 9.71564 86.3598 0 67.6151V35.6485L11.6114 31.7992V60.9205C11.6114 60.9205 15.1659 80.5021 49.763 80.5021C84.3602 80.5021 88.3886 60.9205 88.3886 60.9205V31.7992L100 35.6485ZM79.3839 40.1674V54.5607C79.3839 64.7699 66.1137 73.3054 49.763 73.3054C33.1754 73.3054 20.1422 64.7699 20.1422 54.5607V40.1674H79.3839Z" fill="black"/>
</svg>
