<svg width="120" height="120" viewBox="0 0 120 120" fill="none" xmlns="http://www.w3.org/2000/svg">
<path fill-rule="evenodd" clip-rule="evenodd" d="M99.3479 65.8219L118.225 49.7163C118.786 49.1715 119.233 48.5191 119.538 47.798C119.843 47.0769 120 46.3017 120 45.5185C120 44.7354 119.843 43.9602 119.538 43.2391C119.233 42.518 118.786 41.8656 118.225 41.3208L99.3479 25.2152C96.7929 22.7229 90.3979 21.8119 90.3979 24.8538V38.1133H60.9253C56.7246 38.1133 53.3354 41.3058 53.3354 45.2362C53.3354 49.1666 56.7246 52.3591 60.9253 52.3591H90.3979V65.4605C90.3979 67.5537 96.545 67.772 99.3479 65.8219Z" fill="#FF0101"/>
<path fill-rule="evenodd" clip-rule="evenodd" d="M97.6872 88.9975C94.4709 84.9391 89.2482 79.0586 84.777 78.5014C82.0567 78.1626 78.9305 80.4214 75.8495 82.5523C75.2484 82.8534 70.6043 85.6243 70.0407 85.7899C67.0648 86.6408 60.7149 86.8892 56.8749 83.3805C53.1777 79.9922 47.3313 73.7201 42.612 67.9751C38.1032 62.0569 33.3765 54.9416 30.9567 50.5744C28.4318 46.0492 30.2504 40.0633 31.8134 37.4279C32.099 36.9536 35.5557 33.3921 36.3297 32.5639L36.4425 32.6994C39.3056 30.29 42.3039 27.8429 42.6421 25.1925C43.1982 20.7802 38.6969 14.3575 35.4806 10.2916C32.2643 6.21814 27.2821 -0.912299 20.4963 0.0966543C17.9413 0.473129 15.7395 1.36914 13.5677 2.65669L13.5076 2.58892L13.1469 2.86751L12.959 2.9654L12.9816 2.99551C11.7341 3.95929 8.17218 6.62473 7.76639 6.98615C3.36278 10.909 -3.26518 20.1477 1.85984 36.7653C5.66227 49.1137 13.7706 63.6155 24.8172 78.283L24.7571 78.3357C25.2982 79.0435 25.8543 79.6835 26.4179 80.3687C26.9439 81.0689 27.4624 81.7617 28.0035 82.4544L28.0786 82.4017C39.8015 96.5496 52.0956 107.859 63.315 114.53C78.4195 123.505 89.1581 119.462 94.1178 116.247C94.5837 115.938 98.1306 113.175 99.3329 112.264L99.363 112.294C99.4081 112.249 99.4382 112.188 99.4983 112.143C99.6067 112.061 99.7144 111.978 99.8214 111.895L99.7763 111.834C101.595 110.073 103.053 108.19 104.06 105.818C106.697 99.5765 100.904 93.071 97.6872 88.9975Z" fill="black"/>
</svg>
