<svg width="120" height="120" viewBox="0 0 120 120" fill="none" xmlns="http://www.w3.org/2000/svg">
<path d="M98.1288 79.5838C92.4253 79.5822 86.9482 81.6456 82.8721 85.3316L43.1385 64.6905C43.9549 61.5773 43.9549 58.329 43.1385 55.2158L82.8596 34.5747C86.5704 37.9098 91.4449 39.9156 96.6102 40.2332C101.776 40.5507 106.895 39.1591 111.051 36.3076C115.207 33.4561 118.129 29.3309 119.294 24.6704C120.459 20.0099 119.791 15.1184 117.409 10.8718C115.026 6.6251 111.086 3.30047 106.293 1.49308C101.5 -0.314311 96.1674 -0.486453 91.2496 1.00747C86.3317 2.5014 82.1499 5.56384 79.4528 9.64655C76.7557 13.7293 75.7194 18.5657 76.5294 23.2899L35.871 44.4218C32.6774 41.9633 28.7917 40.3967 24.6691 39.9053C20.5464 39.414 16.3576 40.0183 12.5934 41.6476C8.82913 43.2768 5.64532 45.8634 3.41495 49.1045C1.18457 52.3455 0 56.1067 0 59.9474C0 63.7881 1.18457 67.5492 3.41495 70.7903C5.64532 74.0313 8.82913 76.6179 12.5934 78.2471C16.3576 79.8764 20.5464 80.4807 24.6691 79.9894C28.7917 79.4981 32.6774 77.9314 35.871 75.4729L76.5294 96.6163C75.8266 100.698 76.4949 104.88 78.4444 108.599C80.3938 112.319 83.5306 115.397 87.4319 117.418C91.3332 119.439 95.8114 120.307 100.263 119.904C104.714 119.5 108.925 117.846 112.327 115.163C115.729 112.48 118.159 108.898 119.29 104.899C120.42 100.901 120.197 96.6784 118.65 92.8009C117.102 88.9234 114.305 85.5775 110.636 83.2142C106.967 80.8509 102.602 79.5838 98.1288 79.5838Z" fill="black"/>
</svg>
