<svg width="120" height="70" viewBox="0 0 120 70" fill="none" xmlns="http://www.w3.org/2000/svg">
<path d="M78 0H42C36.4845 -6.84897e-08 31.023 0.905302 25.9273 2.66422C20.8316 4.42313 16.2016 7.00121 12.3015 10.2513C8.40145 13.5013 5.30776 17.3597 3.19706 21.6061C1.08636 25.8525 0 30.4037 0 35C0 39.5963 1.08636 44.1475 3.19706 48.3939C5.30776 52.6403 8.40145 56.4987 12.3015 59.7487C16.2016 62.9988 20.8316 65.5769 25.9273 67.3358C31.023 69.0947 36.4845 70 42 70H78C83.5155 70 88.977 69.0947 94.0727 67.3358C99.1684 65.5769 103.798 62.9988 107.698 59.7487C111.599 56.4987 114.692 52.6403 116.803 48.3939C118.914 44.1475 120 39.5963 120 35C120 30.4037 118.914 25.8525 116.803 21.6061C114.692 17.3597 111.599 13.5013 107.698 10.2513C103.798 7.00121 99.1684 4.42313 94.0727 2.66422C88.977 0.905302 83.5155 -6.84897e-08 78 0ZM78 60C70.0427 59.9993 62.4117 57.3645 56.7856 52.6752C51.1595 47.9858 47.9992 41.6261 48 34.995C48.0008 28.3639 51.1626 22.0047 56.7898 17.3163C62.417 12.6279 70.0487 9.99434 78.006 9.995C81.9461 9.99533 85.8474 10.6424 89.4874 11.8992C93.1274 13.156 96.4347 14.9979 99.2205 17.3198C102.006 19.6418 104.216 22.3982 105.723 25.4318C107.231 28.4653 108.006 31.7166 108.006 35C108.006 38.2834 107.229 41.5345 105.721 44.5678C104.213 47.6012 102.003 50.3572 99.2162 52.6787C96.4299 55.0002 93.1222 56.8416 89.4819 58.0977C85.8416 59.3539 81.9401 60.0003 78 60Z" fill="black"/>
</svg>
